<svg version="1.1" id="Layer_1" xmlns="http://www.w3.org/2000/svg" xmlns:xlink="http://www.w3.org/1999/xlink" x="0px" y="0px"
	 width="100%" viewBox="0 0 1080 1080" enable-background="new 0 0 1080 1080" xml:space="preserve">
<path fill="#FFFFFF" opacity="1.000000" stroke="none" 
	d="
M623.000000,1081.000000 
	C415.357239,1081.000000 208.214478,1081.000000 1.035859,1081.000000 
	C1.035859,721.065430 1.035859,361.130890 1.035859,1.098172 
	C360.893005,1.098172 720.786011,1.098172 1080.839600,1.098172 
	C1080.839600,360.999939 1080.839600,720.999939 1080.839600,1081.000000 
	C928.463806,1081.000000 775.981873,1081.000000 623.000000,1081.000000 
M528.828552,757.021301 
	C530.908875,757.021301 532.989258,757.021301 534.964661,757.021301 
	C534.964661,743.308167 534.964661,730.367859 534.964661,717.182190 
	C532.471191,717.068726 530.180786,716.964478 527.896851,715.943054 
	C527.905457,710.697388 527.914062,705.451782 528.729248,699.994202 
	C536.431702,697.506104 544.403931,695.627991 551.766907,692.372131 
	C560.558960,688.484436 568.701904,683.155334 577.362488,678.936035 
	C585.716064,674.866211 594.243835,671.081909 602.921997,667.766052 
	C617.407043,662.231384 631.231567,664.092712 644.460754,672.200195 
	C656.222473,679.408447 668.089600,686.465149 681.604797,690.145691 
	C706.040466,696.800049 730.550110,694.364014 754.938232,690.409973 
	C798.321045,683.376343 838.990173,668.111938 878.134277,648.487244 
	C892.218750,641.425964 906.312256,634.382690 920.512634,627.275635 
	C925.038574,636.134521 929.359924,644.592957 933.681274,653.051392 
	C934.280579,652.999817 934.879883,652.948181 935.479187,652.896545 
	C946.798889,630.698669 958.118530,608.500793 969.892090,585.413025 
	C944.142395,580.902344 919.619141,576.606506 895.095886,572.310669 
	C894.738953,572.824402 894.382019,573.338135 894.025024,573.851868 
	C898.174255,582.375793 902.323425,590.899719 906.568542,599.620728 
	C905.266052,600.354370 904.303284,600.961670 903.286743,601.459412 
	C889.413269,608.253662 875.379700,614.739258 861.682007,621.870422 
	C820.859253,643.123047 777.945618,657.693115 732.044373,662.534851 
	C715.445251,664.285706 698.632202,664.873779 682.852173,657.989807 
	C674.823181,654.487244 667.200012,649.953369 659.672913,645.421509 
	C642.020386,634.793213 623.333435,631.374817 603.091980,635.771790 
	C586.434326,639.390320 571.674744,647.351013 556.704041,654.938599 
	C547.530701,659.587830 538.262268,664.049438 528.775330,667.722168 
	C528.503601,663.007141 528.337463,658.282349 527.902588,653.582397 
	C527.751465,651.949158 526.935364,650.377380 526.574158,648.050415 
	C532.127625,636.367798 535.746155,624.634460 527.787170,611.611450 
	C527.850525,608.781433 527.968628,605.951355 527.969177,603.121338 
	C527.980042,545.630920 527.975708,488.140533 527.979736,430.650146 
	C527.980164,423.993073 527.994690,423.986664 521.153503,423.986664 
	C390.175323,423.986725 259.197144,424.020813 128.219147,423.869232 
	C123.067894,423.863251 121.882599,425.261597 121.887894,430.273560 
	C122.022675,557.918762 121.986534,685.564148 121.984474,813.209534 
	C121.984360,819.949585 122.001610,819.954834 128.567169,819.954651 
	C254.712814,819.951599 380.858459,819.947205 507.004089,819.943054 
	C512.336548,819.942871 517.672852,819.818237 523.000000,819.986206 
	C526.549377,820.098145 528.074585,818.948669 528.041626,815.128418 
	C527.875122,795.800171 527.924866,776.469971 528.828552,757.021301 
M693.781067,723.382324 
	C693.125793,721.328735 692.470581,719.275208 691.836365,717.287476 
	C687.376953,717.287476 683.117065,717.287476 678.782654,717.287476 
	C674.811157,730.078064 670.916016,742.611938 667.039795,755.151794 
	C666.901367,755.599670 666.951172,756.105652 666.901123,756.737793 
	C670.396179,756.737793 673.815308,756.737793 676.661377,756.737793 
	C679.716003,754.102051 676.244019,747.910706 682.629211,748.072815 
	C685.119812,748.135986 688.596619,747.223816 689.872070,748.502930 
	C691.840210,750.476929 692.301392,753.953552 693.408203,756.809448 
	C696.885559,756.809448 700.347351,756.809448 704.136902,756.809448 
	C700.709900,745.733887 697.369873,734.939453 693.781067,723.382324 
M562.056091,744.695068 
	C560.945190,745.767822 559.861816,747.698181 558.717651,747.734924 
	C556.334229,747.811340 553.607117,747.419678 551.591797,746.243286 
	C548.809631,744.619080 547.110657,744.928345 545.414612,747.459961 
	C544.521301,748.793396 543.421814,749.988708 542.419434,751.241394 
	C550.334290,757.717651 561.053772,758.763733 568.127563,753.929077 
	C575.483398,748.901855 574.870483,738.882385 566.866150,734.981323 
	C563.887756,733.529785 560.594849,732.718262 557.635193,731.235901 
	C556.411682,730.622986 555.686707,729.014648 554.734985,727.859070 
	C555.996033,727.251465 557.204346,726.407166 558.534729,726.110840 
	C559.605103,725.872375 561.052429,725.931641 561.938110,726.487366 
	C567.315369,729.860657 569.472290,726.201599 571.742554,722.441467 
	C565.932434,716.853333 557.159058,715.490295 550.420654,719.031006 
	C546.296265,721.198120 543.753052,724.372742 543.711670,729.282532 
	C543.670898,734.103638 546.304504,737.002747 550.344849,738.907288 
	C554.086731,740.671143 557.893982,742.296387 562.056091,744.695068 
M643.881653,738.259277 
	C643.271118,728.557251 649.677612,723.047546 659.943909,728.249573 
	C661.554443,726.361206 663.211182,724.418701 664.848877,722.498535 
	C656.616516,714.985291 644.657837,715.626465 637.812805,723.565247 
	C630.540466,731.999634 631.372681,746.412476 639.589600,752.818359 
	C647.850159,759.258179 661.600342,757.742004 665.055664,750.648560 
	C663.512207,748.863342 661.909607,747.009705 660.358643,745.215820 
	C650.664673,750.118530 645.833496,748.237732 643.881653,738.259277 
M597.068970,751.400635 
	C597.068970,742.960754 597.068970,734.520813 597.068970,725.636230 
	C600.846252,725.636230 604.102478,725.636230 607.613647,725.636230 
	C607.613647,722.620911 607.613647,720.054993 607.613647,717.277710 
	C596.955444,717.277710 586.432007,717.277710 575.927734,717.277710 
	C575.927734,720.174377 575.927734,722.765442 575.927734,725.822693 
	C579.448425,725.822693 582.690308,725.822693 586.358093,725.822693 
	C586.358093,736.361877 586.358093,746.437683 586.358093,756.761780 
	C590.045898,756.761780 593.286926,756.761780 596.869446,756.761780 
	C596.937927,755.258179 597.003540,753.817139 597.068970,751.400635 
M625.156433,739.499023 
	C625.156433,732.092346 625.156433,724.685669 625.156433,717.303467 
	C621.347107,717.303467 618.112488,717.303467 614.980225,717.303467 
	C614.980225,730.633789 614.980225,743.658142 614.980225,756.694336 
	C618.504578,756.694336 621.727844,756.694336 625.157715,756.694336 
	C625.157715,751.092407 625.157715,745.795532 625.156433,739.499023 
z"/>
<path fill="#020202" opacity="1.000000" stroke="none" 
	d="
M529.036560,668.595337 
	C538.262268,664.049438 547.530701,659.587830 556.704041,654.938599 
	C571.674744,647.351013 586.434326,639.390320 603.091980,635.771790 
	C623.333435,631.374817 642.020386,634.793213 659.672913,645.421509 
	C667.200012,649.953369 674.823181,654.487244 682.852173,657.989807 
	C698.632202,664.873779 715.445251,664.285706 732.044373,662.534851 
	C777.945618,657.693115 820.859253,643.123047 861.682007,621.870422 
	C875.379700,614.739258 889.413269,608.253662 903.286743,601.459412 
	C904.303284,600.961670 905.266052,600.354370 906.568542,599.620728 
	C902.323425,590.899719 898.174255,582.375793 894.025024,573.851868 
	C894.382019,573.338135 894.738953,572.824402 895.095886,572.310669 
	C919.619141,576.606506 944.142395,580.902344 969.892090,585.413025 
	C958.118530,608.500793 946.798889,630.698669 935.479187,652.896545 
	C934.879883,652.948181 934.280579,652.999817 933.681274,653.051392 
	C929.359924,644.592957 925.038574,636.134521 920.512634,627.275635 
	C906.312256,634.382690 892.218750,641.425964 878.134277,648.487244 
	C838.990173,668.111938 798.321045,683.376343 754.938232,690.409973 
	C730.550110,694.364014 706.040466,696.800049 681.604797,690.145691 
	C668.089600,686.465149 656.222473,679.408447 644.460754,672.200195 
	C631.231567,664.092712 617.407043,662.231384 602.921997,667.766052 
	C594.243835,671.081909 585.716064,674.866211 577.362488,678.936035 
	C568.701904,683.155334 560.558960,688.484436 551.766907,692.372131 
	C544.403931,695.627991 536.431702,697.506104 527.926392,700.027344 
	C519.125183,701.456360 511.591217,699.672913 504.028107,696.447693 
	C485.967499,683.570862 481.395782,668.790466 489.758148,650.656799 
	C490.754150,648.496948 491.800781,646.360535 493.325531,643.160583 
	C491.532013,643.952454 490.805389,644.210815 490.138062,644.577148 
	C474.541382,653.139954 458.945007,661.703308 443.361176,670.289368 
	C421.469421,682.350708 399.097473,693.187134 374.318512,698.135010 
	C372.930298,698.412170 371.358917,700.162659 370.751862,701.598999 
	C362.766510,720.490845 349.651978,735.318237 333.968018,748.045227 
	C312.800415,765.221924 288.622803,776.926819 263.137268,786.068298 
	C256.294739,788.522644 249.252930,791.134644 242.126923,791.804016 
	C238.182648,792.174438 234.522491,792.451416 230.546448,794.064819 
	C218.540222,793.929688 206.950653,793.835022 195.188965,793.442017 
	C191.290024,787.912109 187.199203,782.890625 184.003281,777.352722 
	C182.591049,774.905579 182.993042,771.411499 182.571411,768.392700 
	C182.557770,766.236877 180.945480,764.221924 180.807724,762.110779 
	C180.542694,758.048645 181.186203,753.934509 181.318161,749.837585 
	C181.504898,744.040710 180.956482,738.142822 181.854431,732.467285 
	C182.800293,726.488708 187.288834,723.805054 193.370392,724.133301 
	C210.417084,725.053406 227.156403,722.724182 242.676910,715.923584 
	C262.743744,707.130981 282.193085,696.927185 301.873993,687.261169 
	C302.987885,686.714111 303.929108,685.642639 304.714386,684.631653 
	C307.135681,681.514709 309.351501,678.235962 311.815735,675.154968 
	C315.122009,671.021118 319.145050,667.348999 321.837219,662.864441 
	C325.029480,657.546875 322.164185,651.914246 316.327667,649.677795 
	C301.903503,644.150574 287.537048,638.472961 273.124054,632.916321 
	C271.800232,632.405945 269.964020,631.653198 268.955109,632.168030 
	C264.463348,634.459778 260.313599,632.960266 255.902893,631.990662 
	C249.762329,630.640930 243.514816,629.579895 237.257034,628.998901 
	C219.827713,627.380676 202.491043,625.412476 186.078949,618.816833 
	C184.196136,618.060120 182.620758,616.537964 180.903564,615.369629 
	C178.891937,614.000916 176.892212,612.614441 174.864868,611.269470 
	C173.951843,610.663757 172.745392,610.339478 172.082947,609.544922 
	C169.208221,606.097046 166.141769,602.729858 163.840164,598.914062 
	C162.537521,596.754333 162.228760,593.799133 162.105652,591.172546 
	C161.944382,587.731567 163.714066,583.569214 162.326111,580.950500 
	C159.605392,575.817017 161.220276,571.420410 162.256683,566.657715 
	C162.748611,564.397095 163.404602,562.006836 163.135681,559.777954 
	C162.425354,553.891174 164.224991,548.609497 167.815277,544.466431 
	C173.422089,537.996460 179.284027,531.498962 186.045654,526.332031 
	C198.640015,516.708008 213.703644,512.038696 228.708481,507.526611 
	C229.599365,507.258759 230.444641,506.839203 231.536896,506.399323 
	C230.576904,505.205170 229.883423,504.342560 228.860123,503.069641 
	C230.504974,502.609039 231.569107,502.289795 232.644211,502.013214 
	C243.585785,499.198547 254.587128,496.597076 265.460419,493.539978 
	C291.193787,486.304901 316.642517,477.909363 342.625244,471.750031 
	C369.978088,465.265839 397.736816,465.428406 425.095520,473.116791 
	C426.870361,473.615540 429.059967,474.490356 429.972992,475.894714 
	C434.850830,483.397888 439.535522,491.038055 443.993378,498.799530 
	C448.396545,506.465729 451.927521,514.524048 457.531036,521.622070 
	C462.213348,527.553162 459.738525,535.381897 453.310150,539.772339 
	C449.465515,542.398132 445.605255,545.075928 441.467407,547.167053 
	C439.295776,548.264587 436.465637,548.685486 434.011993,548.477600 
	C427.399963,547.917480 420.814514,546.031616 414.247284,546.158813 
	C398.962189,546.455139 383.695312,547.650757 368.417328,548.406738 
	C366.670105,548.493225 364.345093,548.756653 363.233948,547.818115 
	C358.062195,543.449524 352.313324,543.509888 346.229462,544.686707 
	C335.006805,546.857544 323.773651,548.974365 312.552917,551.155029 
	C311.944519,551.273193 311.439484,551.848328 310.835907,552.078186 
	C306.233429,553.830688 301.712555,555.898376 296.979828,557.178284 
	C292.589142,558.365662 287.967926,558.700745 283.594788,559.388062 
	C283.754852,567.428101 288.973022,570.088074 295.220062,571.893494 
	C300.959839,573.552368 308.303101,573.812012 311.963318,577.579651 
	C317.997650,583.791321 325.859833,585.481750 332.493774,589.772217 
	C342.222717,596.064331 347.872131,605.252197 348.495667,617.124878 
	C348.661377,620.279785 349.036102,622.951843 353.282501,623.342468 
	C354.740326,623.476562 356.269653,625.592102 357.288788,627.120789 
	C359.025635,629.725891 360.068787,632.825012 361.959106,635.290527 
	C368.932068,644.385132 377.009827,652.907715 374.849243,666.276428 
	C377.799286,665.474060 379.866669,664.970032 381.898743,664.350159 
	C403.874420,657.646790 423.675018,646.346680 443.580261,635.240356 
	C463.018585,624.394592 481.982666,612.584778 503.655151,605.400513 
	C513.054626,604.045654 520.932922,606.161255 527.504089,612.590088 
	C535.746155,624.634460 532.127625,636.367798 526.208252,648.560303 
	C524.128723,652.093140 522.178589,655.010437 520.767822,658.168762 
	C519.349243,661.344849 516.575745,665.901306 517.741943,667.835327 
	C520.211365,671.930786 525.082214,669.734802 529.036560,668.595337 
z"/>
<path fill="#E8F09B" opacity="1.000000" stroke="none" 
	d="
M504.228455,696.716919 
	C511.591217,699.672913 519.125183,701.456360 527.523071,700.133301 
	C527.914062,705.451782 527.905457,710.697388 527.461487,716.480225 
	C526.236206,717.934570 524.771790,718.842346 524.758972,719.770264 
	C524.600586,731.220154 524.571533,742.674500 524.793945,754.122192 
	C524.813843,755.148010 526.816772,756.135315 527.898804,757.140503 
	C527.924866,776.469971 527.875122,795.800171 528.041626,815.128418 
	C528.074585,818.948669 526.549377,820.098145 523.000000,819.986206 
	C517.672852,819.818237 512.336548,819.942871 507.004089,819.943054 
	C380.858459,819.947205 254.712814,819.951599 128.567169,819.954651 
	C122.001610,819.954834 121.984360,819.949585 121.984474,813.209534 
	C121.986534,685.564148 122.022675,557.918762 121.887894,430.273560 
	C121.882599,425.261597 123.067894,423.863251 128.219147,423.869232 
	C259.197144,424.020813 390.175323,423.986725 521.153503,423.986664 
	C527.994690,423.986664 527.980164,423.993073 527.979736,430.650146 
	C527.975708,488.140533 527.980042,545.630920 527.969177,603.121338 
	C527.968628,605.951355 527.850525,608.781433 527.645630,612.100769 
	C520.932922,606.161255 513.054626,604.045654 503.601776,604.913818 
	C503.075745,555.007812 503.052612,505.684235 503.002228,456.360657 
	C502.993958,448.267578 503.873138,448.993134 495.908112,448.992035 
	C381.929260,448.976074 267.950409,448.978027 153.971542,448.977570 
	C146.943207,448.977539 146.942261,448.984741 146.942322,455.933014 
	C146.943268,563.746338 146.944427,671.559692 146.945755,779.372986 
	C146.945801,783.039001 147.118561,786.715271 146.898407,790.367920 
	C146.698593,793.683167 147.585114,795.146362 151.277893,795.094727 
	C164.606094,794.908386 177.938797,795.062012 191.268997,794.970520 
	C192.635757,794.961121 193.997162,794.169128 195.361069,793.740356 
	C206.950653,793.835022 218.540222,793.929688 230.860748,794.344971 
	C233.071167,794.789124 234.550629,795.020386 236.030136,795.020691 
	C321.727417,795.036255 407.424683,795.033203 493.121979,795.030151 
	C503.020111,795.029785 502.897125,795.022888 503.053528,784.963013 
	C503.197784,775.686218 503.644714,766.414185 504.328186,756.990234 
	C507.375793,756.039978 510.180542,755.509277 512.681152,754.332397 
	C514.062988,753.682007 515.802124,752.004150 515.886108,750.693665 
	C516.241699,745.146301 516.036926,739.562988 516.036926,733.892883 
	C512.029480,733.645996 508.456268,733.425842 504.805634,732.921021 
	C502.526733,728.691650 502.862427,728.192383 508.278931,727.933594 
	C510.831024,726.292847 513.007751,724.632141 515.184448,722.971436 
	C515.130066,722.387817 515.075684,721.804260 515.021301,721.220642 
	C511.319122,719.775879 507.616913,718.331116 503.862671,716.480347 
	C503.949890,709.621887 504.089172,703.169434 504.228455,696.716919 
z"/>
<path fill="#0A0A0A" opacity="1.000000" stroke="none" 
	d="
M693.905457,723.763672 
	C697.369873,734.939453 700.709900,745.733887 704.136902,756.809448 
	C700.347351,756.809448 696.885559,756.809448 693.408203,756.809448 
	C692.301392,753.953552 691.840210,750.476929 689.872070,748.502930 
	C688.596619,747.223816 685.119812,748.135986 682.629211,748.072815 
	C676.244019,747.910706 679.716003,754.102051 676.661377,756.737793 
	C673.815308,756.737793 670.396179,756.737793 666.901123,756.737793 
	C666.951172,756.105652 666.901367,755.599670 667.039795,755.151794 
	C670.916016,742.611938 674.811157,730.078064 678.782654,717.287476 
	C683.117065,717.287476 687.376953,717.287476 691.836365,717.287476 
	C692.470581,719.275208 693.125793,721.328735 693.905457,723.763672 
M685.230103,740.025330 
	C686.371399,739.958374 687.512634,739.891479 688.920593,739.808960 
	C687.753967,735.105164 686.641541,730.619873 685.529114,726.134583 
	C685.217712,726.140808 684.906250,726.147034 684.594849,726.153259 
	C683.549561,730.664734 682.504272,735.176208 681.381409,740.022583 
	C682.691406,740.022583 683.504456,740.022583 685.230103,740.025330 
z"/>
<path fill="#0E0E0E" opacity="1.000000" stroke="none" 
	d="
M561.864258,744.338867 
	C557.893982,742.296387 554.086731,740.671143 550.344849,738.907288 
	C546.304504,737.002747 543.670898,734.103638 543.711670,729.282532 
	C543.753052,724.372742 546.296265,721.198120 550.420654,719.031006 
	C557.159058,715.490295 565.932434,716.853333 571.742554,722.441467 
	C569.472290,726.201599 567.315369,729.860657 561.938110,726.487366 
	C561.052429,725.931641 559.605103,725.872375 558.534729,726.110840 
	C557.204346,726.407166 555.996033,727.251465 554.734985,727.859070 
	C555.686707,729.014648 556.411682,730.622986 557.635193,731.235901 
	C560.594849,732.718262 563.887756,733.529785 566.866150,734.981323 
	C574.870483,738.882385 575.483398,748.901855 568.127563,753.929077 
	C561.053772,758.763733 550.334290,757.717651 542.419434,751.241394 
	C543.421814,749.988708 544.521301,748.793396 545.414612,747.459961 
	C547.110657,744.928345 548.809631,744.619080 551.591797,746.243286 
	C553.607117,747.419678 556.334229,747.811340 558.717651,747.734924 
	C559.861816,747.698181 560.945190,745.767822 561.864258,744.338867 
z"/>
<path fill="#0E0E0E" opacity="1.000000" stroke="none" 
	d="
M643.919189,738.672974 
	C645.833496,748.237732 650.664673,750.118530 660.358643,745.215820 
	C661.909607,747.009705 663.512207,748.863342 665.055664,750.648560 
	C661.600342,757.742004 647.850159,759.258179 639.589600,752.818359 
	C631.372681,746.412476 630.540466,731.999634 637.812805,723.565247 
	C644.657837,715.626465 656.616516,714.985291 664.848877,722.498535 
	C663.211182,724.418701 661.554443,726.361206 659.943909,728.249573 
	C649.677612,723.047546 643.271118,728.557251 643.919189,738.672974 
z"/>
<path fill="#0C0C0C" opacity="1.000000" stroke="none" 
	d="
M597.069092,751.888367 
	C597.003540,753.817139 596.937927,755.258179 596.869446,756.761780 
	C593.286926,756.761780 590.045898,756.761780 586.358093,756.761780 
	C586.358093,746.437683 586.358093,736.361877 586.358093,725.822693 
	C582.690308,725.822693 579.448425,725.822693 575.927734,725.822693 
	C575.927734,722.765442 575.927734,720.174377 575.927734,717.277710 
	C586.432007,717.277710 596.955444,717.277710 607.613647,717.277710 
	C607.613647,720.054993 607.613647,722.620911 607.613647,725.636230 
	C604.102478,725.636230 600.846252,725.636230 597.068970,725.636230 
	C597.068970,734.520813 597.068970,742.960754 597.069092,751.888367 
z"/>
<path fill="#040402" opacity="1.000000" stroke="none" 
	d="
M528.363647,757.080933 
	C526.816772,756.135315 524.813843,755.148010 524.793945,754.122192 
	C524.571533,742.674500 524.600586,731.220154 524.758972,719.770264 
	C524.771790,718.842346 526.236206,717.934570 527.458252,716.938843 
	C530.180786,716.964478 532.471191,717.068726 534.964661,717.182190 
	C534.964661,730.367859 534.964661,743.308167 534.964661,757.021301 
	C532.989258,757.021301 530.908875,757.021301 528.363647,757.080933 
z"/>
<path fill="#010101" opacity="1.000000" stroke="none" 
	d="
M625.157104,739.998840 
	C625.157715,745.795532 625.157715,751.092407 625.157715,756.694336 
	C621.727844,756.694336 618.504578,756.694336 614.980225,756.694336 
	C614.980225,743.658142 614.980225,730.633789 614.980225,717.303467 
	C618.112488,717.303467 621.347107,717.303467 625.156433,717.303467 
	C625.156433,724.685669 625.156433,732.092346 625.157104,739.998840 
z"/>
<path fill="#DFE6A2" opacity="1.000000" stroke="none" 
	d="
M528.905945,668.158752 
	C525.082214,669.734802 520.211365,671.930786 517.741943,667.835327 
	C516.575745,665.901306 519.349243,661.344849 520.767822,658.168762 
	C522.178589,655.010437 524.128723,652.093140 526.132690,648.923828 
	C526.935364,650.377380 527.751465,651.949158 527.902588,653.582397 
	C528.337463,658.282349 528.503601,663.007141 528.905945,668.158752 
z"/>
<path fill="#FEFEFD" opacity="1.000000" stroke="none" 
	d="
M195.188965,793.442017 
	C193.997162,794.169128 192.635757,794.961121 191.268997,794.970520 
	C177.938797,795.062012 164.606094,794.908386 151.277893,795.094727 
	C147.585114,795.146362 146.698593,793.683167 146.898407,790.367920 
	C147.118561,786.715271 146.945801,783.039001 146.945755,779.372986 
	C146.944427,671.559692 146.943268,563.746338 146.942322,455.933014 
	C146.942261,448.984741 146.943207,448.977539 153.971542,448.977570 
	C267.950409,448.978027 381.929260,448.976074 495.908112,448.992035 
	C503.873138,448.993134 502.993958,448.267578 503.002228,456.360657 
	C503.052612,505.684235 503.075745,555.007812 503.161316,604.818115 
	C481.982666,612.584778 463.018585,624.394592 443.580261,635.240356 
	C423.675018,646.346680 403.874420,657.646790 381.898743,664.350159 
	C379.866669,664.970032 377.799286,665.474060 374.849243,666.276428 
	C377.009827,652.907715 368.932068,644.385132 361.959106,635.290527 
	C360.068787,632.825012 359.025635,629.725891 357.288788,627.120789 
	C356.269653,625.592102 354.740326,623.476562 353.282501,623.342468 
	C349.036102,622.951843 348.661377,620.279785 348.495667,617.124878 
	C347.872131,605.252197 342.222717,596.064331 332.493774,589.772217 
	C325.859833,585.481750 317.997650,583.791321 311.963318,577.579651 
	C308.303101,573.812012 300.959839,573.552368 295.220062,571.893494 
	C288.973022,570.088074 283.754852,567.428101 283.594788,559.388062 
	C287.967926,558.700745 292.589142,558.365662 296.979828,557.178284 
	C301.712555,555.898376 306.233429,553.830688 310.835907,552.078186 
	C311.439484,551.848328 311.944519,551.273193 312.552917,551.155029 
	C323.773651,548.974365 335.006805,546.857544 346.229462,544.686707 
	C352.313324,543.509888 358.062195,543.449524 363.233948,547.818115 
	C364.345093,548.756653 366.670105,548.493225 368.417328,548.406738 
	C383.695312,547.650757 398.962189,546.455139 414.247284,546.158813 
	C420.814514,546.031616 427.399963,547.917480 434.011993,548.477600 
	C436.465637,548.685486 439.295776,548.264587 441.467407,547.167053 
	C445.605255,545.075928 449.465515,542.398132 453.310150,539.772339 
	C459.738525,535.381897 462.213348,527.553162 457.531036,521.622070 
	C451.927521,514.524048 448.396545,506.465729 443.993378,498.799530 
	C439.535522,491.038055 434.850830,483.397888 429.972992,475.894714 
	C429.059967,474.490356 426.870361,473.615540 425.095520,473.116791 
	C397.736816,465.428406 369.978088,465.265839 342.625244,471.750031 
	C316.642517,477.909363 291.193787,486.304901 265.460419,493.539978 
	C254.587128,496.597076 243.585785,499.198547 232.644211,502.013214 
	C231.569107,502.289795 230.504974,502.609039 228.860123,503.069641 
	C229.883423,504.342560 230.576904,505.205170 231.536896,506.399323 
	C230.444641,506.839203 229.599365,507.258759 228.708481,507.526611 
	C213.703644,512.038696 198.640015,516.708008 186.045654,526.332031 
	C179.284027,531.498962 173.422089,537.996460 167.815277,544.466431 
	C164.224991,548.609497 162.425354,553.891174 163.135681,559.777954 
	C163.404602,562.006836 162.748611,564.397095 162.256683,566.657715 
	C161.220276,571.420410 159.605392,575.817017 162.326111,580.950500 
	C163.714066,583.569214 161.944382,587.731567 162.105652,591.172546 
	C162.228760,593.799133 162.537521,596.754333 163.840164,598.914062 
	C166.141769,602.729858 169.208221,606.097046 172.082947,609.544922 
	C172.745392,610.339478 173.951843,610.663757 174.864868,611.269470 
	C176.892212,612.614441 178.891937,614.000916 180.903564,615.369629 
	C182.620758,616.537964 184.196136,618.060120 186.078949,618.816833 
	C202.491043,625.412476 219.827713,627.380676 237.257034,628.998901 
	C243.514816,629.579895 249.762329,630.640930 255.902893,631.990662 
	C260.313599,632.960266 264.463348,634.459778 268.955109,632.168030 
	C269.964020,631.653198 271.800232,632.405945 273.124054,632.916321 
	C287.537048,638.472961 301.903503,644.150574 316.327667,649.677795 
	C322.164185,651.914246 325.029480,657.546875 321.837219,662.864441 
	C319.145050,667.348999 315.122009,671.021118 311.815735,675.154968 
	C309.351501,678.235962 307.135681,681.514709 304.714386,684.631653 
	C303.929108,685.642639 302.987885,686.714111 301.873993,687.261169 
	C282.193085,696.927185 262.743744,707.130981 242.676910,715.923584 
	C227.156403,722.724182 210.417084,725.053406 193.370392,724.133301 
	C187.288834,723.805054 182.800293,726.488708 181.854431,732.467285 
	C180.956482,738.142822 181.504898,744.040710 181.318161,749.837585 
	C181.186203,753.934509 180.542694,758.048645 180.807724,762.110779 
	C180.945480,764.221924 182.557770,766.236877 182.571411,768.392700 
	C182.993042,771.411499 182.591049,774.905579 184.003281,777.352722 
	C187.199203,782.890625 191.290024,787.912109 195.188965,793.442017 
z"/>
<path fill="#FDFDFC" opacity="1.000000" stroke="none" 
	d="
M503.958344,757.140015 
	C503.644714,766.414185 503.197784,775.686218 503.053528,784.963013 
	C502.897125,795.022888 503.020111,795.029785 493.121979,795.030151 
	C407.424683,795.033203 321.727417,795.036255 236.030136,795.020691 
	C234.550629,795.020386 233.071167,794.789124 231.277390,794.385498 
	C234.522491,792.451416 238.182648,792.174438 242.126923,791.804016 
	C249.252930,791.134644 256.294739,788.522644 263.137268,786.068298 
	C288.622803,776.926819 312.800415,765.221924 333.968018,748.045227 
	C349.651978,735.318237 362.766510,720.490845 370.751862,701.598999 
	C371.358917,700.162659 372.930298,698.412170 374.318512,698.135010 
	C399.097473,693.187134 421.469421,682.350708 443.361176,670.289368 
	C458.945007,661.703308 474.541382,653.139954 490.138062,644.577148 
	C490.805389,644.210815 491.532013,643.952454 493.325531,643.160583 
	C491.800781,646.360535 490.754150,648.496948 489.758148,650.656799 
	C481.395782,668.790466 485.967499,683.570862 504.028076,696.447693 
	C504.089172,703.169434 503.949890,709.621887 503.449463,716.565125 
	C502.591644,717.079773 502.094208,717.092896 501.598450,717.129211 
	C489.382874,718.022949 481.879211,725.622803 481.912048,737.065125 
	C481.946045,748.908142 488.889221,755.925598 501.493622,756.866089 
	C502.317413,756.927490 503.136871,757.047302 503.958344,757.140015 
M441.382355,747.857605 
	C443.291290,749.894714 444.877930,752.452820 447.169922,753.870728 
	C453.909027,758.039978 461.107849,758.126343 467.924500,754.131592 
	C475.280792,749.820618 476.886261,742.614197 476.369965,734.728271 
	C475.656067,723.824219 468.109528,716.796326 457.523651,717.037598 
	C446.646027,717.285522 439.254333,724.200684 439.051575,735.050659 
	C438.976471,739.070190 440.354889,743.116943 441.382355,747.857605 
M427.434814,748.331421 
	C425.164154,748.331421 422.893494,748.331421 420.224182,748.331421 
	C420.224182,737.642151 420.224182,727.559265 420.224182,717.341309 
	C416.453644,717.341309 413.098328,717.341309 409.682831,717.341309 
	C409.682831,724.162903 409.682831,730.639038 409.682831,737.115173 
	C409.682831,743.684509 409.682831,750.253784 409.682831,757.009277 
	C414.388123,757.009277 418.546051,757.009216 422.703979,757.009216 
	C426.954956,757.009216 431.205902,757.009277 435.252441,757.009277 
	C435.252441,753.690918 435.252441,751.135559 435.252441,748.331726 
	C432.679901,748.331726 430.527679,748.331726 427.434814,748.331421 
z"/>
<path fill="#0C0C0A" opacity="1.000000" stroke="none" 
	d="
M504.328186,756.990234 
	C503.136871,757.047302 502.317413,756.927490 501.493622,756.866089 
	C488.889221,755.925598 481.946045,748.908142 481.912048,737.065125 
	C481.879211,725.622803 489.382874,718.022949 501.598450,717.129211 
	C502.094208,717.092896 502.591644,717.079773 503.501526,716.971069 
	C507.616913,718.331116 511.319122,719.775879 515.021301,721.220642 
	C515.075684,721.804260 515.130066,722.387817 515.184448,722.971436 
	C513.007751,724.632141 510.831024,726.292847 508.040955,727.668701 
	C503.348969,725.192749 499.308716,725.375488 495.913757,728.461731 
	C491.977509,732.039917 492.311218,736.840393 493.391602,741.498596 
	C494.280396,745.330811 497.122620,747.271667 500.868744,747.888672 
	C505.822083,748.704590 506.868256,747.564636 506.069061,742.336426 
	C504.351227,742.078674 502.615967,741.818298 500.741913,741.537109 
	C501.330353,738.098999 498.670380,733.467957 504.883026,733.205688 
	C508.456268,733.425842 512.029480,733.645996 516.036926,733.892883 
	C516.036926,739.562988 516.241699,745.146301 515.886108,750.693665 
	C515.802124,752.004150 514.062988,753.682007 512.681152,754.332397 
	C510.180542,755.509277 507.375793,756.039978 504.328186,756.990234 
z"/>
<path fill="#EDEFE6" opacity="1.000000" stroke="none" 
	d="
M504.805634,732.921021 
	C498.670380,733.467957 501.330353,738.098999 500.741913,741.537109 
	C502.615967,741.818298 504.351227,742.078674 506.069061,742.336426 
	C506.868256,747.564636 505.822083,748.704590 500.868744,747.888672 
	C497.122620,747.271667 494.280396,745.330811 493.391602,741.498596 
	C492.311218,736.840393 491.977509,732.039917 495.913757,728.461731 
	C499.308716,725.375488 503.348969,725.192749 507.665527,727.648804 
	C502.862427,728.192383 502.526733,728.691650 504.805634,732.921021 
z"/>
<path fill="#EDEFE6" opacity="1.000000" stroke="none" 
	d="
M684.773804,740.023926 
	C683.504456,740.022583 682.691406,740.022583 681.381409,740.022583 
	C682.504272,735.176208 683.549561,730.664734 684.594849,726.153259 
	C684.906250,726.147034 685.217712,726.140808 685.529114,726.134583 
	C686.641541,730.619873 687.753967,735.105164 688.920593,739.808960 
	C687.512634,739.891479 686.371399,739.958374 684.773804,740.023926 
z"/>
<path fill="#0A0A0A" opacity="1.000000" stroke="none" 
	d="
M441.226379,747.504395 
	C440.354889,743.116943 438.976471,739.070190 439.051575,735.050659 
	C439.254333,724.200684 446.646027,717.285522 457.523651,717.037598 
	C468.109528,716.796326 475.656067,723.824219 476.369965,734.728271 
	C476.886261,742.614197 475.280792,749.820618 467.924500,754.131592 
	C461.107849,758.126343 453.909027,758.039978 447.169922,753.870728 
	C444.877930,752.452820 443.291290,749.894714 441.226379,747.504395 
M463.633270,744.990417 
	C464.099152,740.644226 465.195496,736.245605 464.840302,731.967590 
	C464.531281,728.245972 461.644257,725.870422 457.442993,726.034363 
	C453.270813,726.197144 450.987610,728.732666 450.314362,732.473022 
	C449.822479,735.205872 449.768829,738.164490 450.245270,740.895996 
	C451.481049,747.980774 457.233521,749.968018 463.633270,744.990417 
z"/>
<path fill="#070707" opacity="1.000000" stroke="none" 
	d="
M427.905151,748.331543 
	C430.527679,748.331726 432.679901,748.331726 435.252441,748.331726 
	C435.252441,751.135559 435.252441,753.690918 435.252441,757.009277 
	C431.205902,757.009277 426.954956,757.009216 422.703979,757.009216 
	C418.546051,757.009216 414.388123,757.009277 409.682831,757.009277 
	C409.682831,750.253784 409.682831,743.684509 409.682831,737.115173 
	C409.682831,730.639038 409.682831,724.162903 409.682831,717.341309 
	C413.098328,717.341309 416.453644,717.341309 420.224182,717.341309 
	C420.224182,727.559265 420.224182,737.642151 420.224182,748.331421 
	C422.893494,748.331421 425.164154,748.331421 427.905151,748.331543 
z"/>
<path fill="#F5F5F5" opacity="1.000000" stroke="none" 
	d="
M463.372437,745.282837 
	C457.233521,749.968018 451.481049,747.980774 450.245270,740.895996 
	C449.768829,738.164490 449.822479,735.205872 450.314362,732.473022 
	C450.987610,728.732666 453.270813,726.197144 457.442993,726.034363 
	C461.644257,725.870422 464.531281,728.245972 464.840302,731.967590 
	C465.195496,736.245605 464.099152,740.644226 463.372437,745.282837 
z"/>
</svg>